<?xml version="1.0" encoding="UTF-8"?>
<svg id="_Слой_1" data-name="Слой 1" xmlns="http://www.w3.org/2000/svg" viewBox="0 0 5920 1440">
  <defs>
    <style>
      .cls-1 {
        fill: #010101;
      }

      .cls-1, .cls-2 {
        stroke-width: 0px;
      }

      .cls-2 {
        fill: #ffd10c;
      }

      .cls-3 {
        letter-spacing: 0em;
      }

      .cls-4 {
        font-family: FranklinGothic-Heavy, 'Franklin Gothic Heavy';
        font-size: 900px;
        font-weight: 800;
      }
    </style>
  </defs>
  <g>
    <rect class="cls-2" x="56.88" y="220" width="1000" height="1000" rx="75.28" ry="75.28"/>
    <g>
      <path class="cls-1" d="M858.4,904.3l-88.64,1.25-1.84-130.84-131.56,1.85-1.27-90.04,131.56-1.85-1.85-131.55,88.64-1.25,1.85,131.55,132.25-1.86,1.27,90.04-132.25,1.86,1.84,130.84Z"/>
      <path class="cls-1" d="M341.73,894.04l-20.27,89.32h-159.74l127.45-524.22h225.01l120.92,524.22h-158.02l-20.61-89.32h-114.74ZM369.9,771.06h58.39l-28.86-128.13-29.54,128.13h.01Z"/>
    </g>
  </g>
  <text class="cls-4" transform="translate(1196.67 1023.88)"><tspan x="0" y="0">AKYL</tspan></text>
  <text class="cls-4" transform="translate(3567.86 1023.88)"><tspan x="0" y="0">P</tspan><tspan class="cls-3" x="578.76" y="0">L</tspan><tspan x="1059.08" y="0">US</tspan></text>
</svg>